<?xml version="1.0" encoding="UTF-8" standalone="no"?>
<svg width="23px" height="22px" viewBox="0 0 23 22" version="1.1" xmlns="http://www.w3.org/2000/svg" xmlns:xlink="http://www.w3.org/1999/xlink" xmlns:sketch="http://www.bohemiancoding.com/sketch/ns">
    <title>Himnario2014</title>
    <description>Created with Sketch (http://www.bohemiancoding.com/sketch)</description>
    <defs></defs>
    <g id="plain-search" stroke="none" stroke-width="1" fill="none" fill-rule="evenodd" sketch:type="MSPage">
        <path d="M13.4483204,21.9638554 L15.6704027,18.8858479 C15.8545509,18.7860402 16.0347246,18.6798283 16.2106252,18.5675107 L16.2106252,18.5675107 L20.3764458,18.1424258 L22.1702553,15.0354566 L22.1702553,15.0354566 L20.3588801,11 L22.1702553,6.96454336 L20.3764458,3.85757416 L20.3764458,3.85757416 L15.9746058,3.40840559 L16.1674729,3.74246129 C15.9803729,3.62452107 15.7885038,3.51346181 15.5922205,3.40963855 L15.5922205,3.40963855 L15.8837209,3.40963855 L13.4483204,0.0361445783 L9.55167959,0.0361445783 L9.55167959,0.0361445783 L7.11627907,3.40963855 L7.4077795,3.40963855 C7.21149618,3.51346181 7.01962708,3.62452107 6.83252709,3.74246129 L6.83252709,3.74246129 L7.02539425,3.40840559 L2.62355418,3.85757416 L0.829744675,6.96454336 L0.829744675,6.96454336 L2.64111988,11 L2.64111988,11 L0.829744675,15.0354566 L2.62355418,18.1424258 L6.78937484,18.5675107 C6.96527545,18.6798283 7.14544909,18.7860402 7.32959732,18.8858479 L7.32959732,18.8858479 L9.55167959,21.9638554 L13.4483204,21.9638554 L13.4483204,21.9638554 Z M20.2674332,11.1561992 C20.2672826,11.0479597 20.2651722,10.9401798 20.2611356,10.832893 L20.2611356,10.832893 L20.3576148,11 L20.2674332,11.1561992 L20.2674332,11.1561992 Z M2.64238517,11 L2.73886444,10.832893 C2.73482784,10.9401798 2.73271743,11.0479597 2.73256682,11.1561992 L2.64238517,11 L2.64238517,11 Z M11.6686047,16.5662651 C14.5552559,16.5662651 16.8953488,14.2251999 16.8953488,11.3373494 C16.8953488,8.44949888 14.5552559,6.10843373 11.6686047,6.10843373 C8.7819534,6.10843373 6.44186047,8.44949888 6.44186047,11.3373494 C6.44186047,14.2251999 8.7819534,16.5662651 11.6686047,16.5662651 Z" id="Oval-2" fill="#FCFCFC" sketch:type="MSShapeGroup"></path>
    </g>
</svg>