<?xml version="1.0" encoding="UTF-8" standalone="no"?>
<svg width="18px" height="18px" viewBox="0 0 18 18" version="1.1" xmlns="http://www.w3.org/2000/svg" xmlns:xlink="http://www.w3.org/1999/xlink" xmlns:sketch="http://www.bohemiancoding.com/sketch/ns">
    <!-- Generator: Sketch 3.0.1 (7597) - http://www.bohemiancoding.com/sketch -->
    <title>Oval 6</title>
    <description>Created with Sketch.</description>
    <defs></defs>
    <g id="Page-1" stroke="none" stroke-width="1" fill="none" fill-rule="evenodd" sketch:type="MSPage">
        <path d="M8,13 L8,8 L10,8 L10,13 L10.5,13 L11,13 L11,14 L10.5,14 L7.5,14 L7,14 L7,13 L7.5,13 L8,13 Z M9,18 C13.970563,18 18,13.970563 18,9 C18,4.02943701 13.970563,0 9,0 C4.02943701,0 0,4.02943701 0,9 C0,13.970563 4.02943701,18 9,18 Z M9,6 C9.55228475,6 10,5.55228475 10,5 C10,4.44771525 9.55228475,4 9,4 C8.44771525,4 8,4.44771525 8,5 C8,5.55228475 8.44771525,6 9,6 Z M7.5,8 L9.5,8 L10,8 L10,7 L9.5,7 L7.5,7 L7,7 L7,8 L7.5,8 Z" id="Oval-6" fill-opacity="1" fill="#CCC" sketch:type="MSShapeGroup"></path>
    </g>
</svg>