<?xml version="1.0" standalone="no"?>
<!DOCTYPE svg PUBLIC "-//W3C//DTD SVG 20010904//EN"
 "http://www.w3.org/TR/2001/REC-SVG-20010904/DTD/svg10.dtd">
<svg version="1.0" xmlns="http://www.w3.org/2000/svg"
 width="16pt" height="16pt" viewBox="0 0 16 16"
 preserveAspectRatio="xMidYMid meet">
<metadata>
Created by potrace 1.11, written by Peter Selinger 2001-2013
</metadata>
<g transform="translate(-2.000000,16) scale(0.004962779157,-0.004962779157)"
fill="#000000" stroke="none">
<path d="M2099 3168 c0 -2 -2 -13 -5 -26 -16 -89 -80 -166 -429 -517 -356
-359 -389 -399 -436 -538 -22 -67 -28 -222 -10 -255 9 -14 10 -11 11 15 0 53
44 156 95 229 27 38 183 203 348 369 403 405 428 441 431 622 2 56 1 103 -1
103 -2 0 -3 -1 -4 -2z"/>
<path d="M2097 2863 c-4 -3 -7 -15 -7 -25 0 -63 -75 -153 -404 -486 -325 -328
-393 -414 -431 -540 -20 -64 -13 -186 12 -243 20 -45 56 -85 38 -43 -30 74
-10 182 54 280 51 78 99 131 367 398 250 251 305 315 347 404 26 55 30 76 32
163 1 54 1 99 0 99 -1 0 -5 -3 -8 -7z"/>
<path d="M2094 2553 c-3 -10 -18 -45 -35 -79 -33 -69 -100 -143 -408 -453
-224 -226 -263 -273 -293 -359 -41 -118 -11 -266 64 -312 48 -29 60 -24 27 11
-28 31 -35 56 -30 124 7 105 58 175 322 440 332 334 360 376 363 546 1 54 0
99 -2 99 -1 0 -5 -8 -8 -17z"/>
<path d="M2325 2351 c28 -30 30 -38 30 -104 -1 -110 -41 -182 -182 -325 -196
-199 -223 -250 -229 -422 -4 -106 -3 -112 9 -75 35 104 81 167 256 347 142
145 165 174 198 248 31 69 39 178 17 242 -16 49 -65 102 -104 113 -25 7 -25 7
5 -24z"/>
<path d="M2475 2173 c39 -140 -24 -266 -242 -488 -159 -162 -213 -228 -254
-311 -30 -60 -32 -73 -35 -182 l-3 -117 15 55 c23 84 91 177 248 338 79 81
156 163 172 182 16 19 37 43 46 54 27 30 89 155 103 206 18 68 9 174 -20 238
-26 56 -42 70 -30 25z"/>
<path d="M2551 1878 c-1 -25 -2 -27 -18 -83 -34 -114 -87 -187 -274 -377 -72
-73 -152 -158 -179 -188 -47 -54 -100 -132 -100 -147 0 -5 28 -8 61 -7 l62 1
101 99 c247 244 310 328 348 463 19 66 22 180 7 231 -4 16 -7 19 -8 8z"/>
<path d="M1495 1229 c-22 -4 -58 -10 -80 -13 -81 -13 -101 -17 -154 -27 -30
-6 -64 -12 -75 -14 -20 -2 -183 -31 -236 -41 -14 -2 -43 -7 -65 -10 -22 -4
-40 -7 -41 -8 -3 -4 -319 -443 -328 -455 -9 -11 -5 -12 19 -7 17 4 41 8 55 11
35 5 259 45 290 50 14 3 90 16 170 30 80 14 157 27 170 30 166 32 230 39 341
38 129 -2 219 -48 255 -131 10 -23 12 -3 15 126 2 83 1 153 -3 153 -5 1 -41 2
-80 3 l-73 1 0 55 0 55 75 0 75 0 3 30 c5 42 -24 91 -67 112 -39 19 -192 26
-266 12z"/>
<path d="M2198 1072 c-185 -191 -235 -265 -253 -379 l-6 -38 30 47 c75 119
222 140 546 78 57 -11 86 -16 170 -30 73 -12 73 -12 265 -46 85 -14 167 -28
181 -30 14 -2 48 -8 74 -14 26 -6 50 -9 52 -6 8 8 -318 455 -336 461 -13 4
-114 22 -501 90 -19 4 -45 8 -56 11 -17 3 -52 -28 -166 -144z"/>
<path d="M3293 974 c15 -8 32 -25 37 -37 6 -16 9 -18 9 -5 1 17 -44 58 -63 58
-6 -1 2 -8 17 -16z"/>
<path d="M3226 958 c-18 -25 -20 -56 -6 -78 6 -10 8 -4 4 21 -5 29 -2 41 15
58 11 11 17 21 12 21 -6 0 -17 -10 -25 -22z"/>
<path d="M1941 880 l1 -85 15 48 c7 26 23 62 33 80 26 42 26 43 -15 43 l-35 0
1 -86z"/>
<path d="M3253 944 c0 -17 14 -18 19 -2 3 9 6 9 12 0 4 -8 -1 -16 -16 -21 -14
-6 -17 -10 -7 -10 9 -1 24 -10 34 -21 16 -18 16 -20 1 -26 -9 -3 -25 -4 -36
-1 -11 3 -18 1 -14 -4 11 -18 52 -9 78 18 14 14 24 29 20 32 -3 3 -10 -2 -16
-12 -14 -26 -41 -2 -33 30 3 13 2 23 -2 24 -5 0 -15 2 -24 4 -9 1 -16 -4 -16
-11z"/>
<path d="M3250 890 c0 -5 5 -10 10 -10 6 0 10 5 10 10 0 6 -4 10 -10 10 -5 0
-10 -4 -10 -10z"/>
</g>
</svg>
