<?xml version="1.0" encoding="UTF-8" standalone="no"?>
<svg width="95px" height="85px" viewBox="0 0 95 85" version="1.1" xmlns="http://www.w3.org/2000/svg" xmlns:xlink="http://www.w3.org/1999/xlink" xmlns:sketch="http://www.bohemiancoding.com/sketch/ns">
    <!-- Generator: Sketch 3.0.1 (7597) - http://www.bohemiancoding.com/sketch -->
    <title>White SDA Logo</title>
    <description>Created with Sketch.</description>
    <defs></defs>
    <g id="plain-search" stroke="none" stroke-width="1" fill="none" fill-rule="evenodd" sketch:type="MSPage">
        <g id="White-SDA-Logo" sketch:type="MSLayerGroup" transform="translate(3.000000, 0.000000)" fill="#FFFFFF">
            <path d="M36.811,69.359 L36.811,65.876 L41.753,65.876 L41.753,65.549 C41.753,62.063 40.146,59.508 29.069,61.427 L10.854,64.671 L0.373,79.21 L25.524,74.749 C33.06,73.456 39.677,73.186 41.753,79.177 L41.753,69.359 L36.811,69.359" id="Fill-4" sketch:type="MSShapeGroup"></path>
            <path d="M45.19,79.176 C45.19,74.434 47.992,71.176 53.711,65.457 L57.741,61.427 L76.161,64.671 L86.66,79.194 L62.507,75.027 C54.318,73.456 47.376,72.905 45.19,79.176" id="Fill-5" sketch:type="MSShapeGroup"></path>
            <path d="M46.211,65.869 C48.036,61.954 51.921,58.414 54.155,56.18 L55.745,54.565 C62.509,47.801 63.81,45.003 64.22,40.344 C64.238,40.101 64.587,41.257 64.691,42.075 C65.04,44.82 64.838,46.813 63.905,49.561 C62.51,53.669 59.207,56.942 54.921,61.228 L50.26,65.869 L46.211,65.869" id="Fill-6" sketch:type="MSShapeGroup"></path>
            <path d="M50.139,9.149 C50.139,9.112 50.251,9.092 50.251,9.149 L50.251,14.544 C50.251,19.422 43.981,25.051 41.484,27.532 L32.297,36.744 C29.122,39.919 22.764,46.191 25.433,52.242 C25.522,52.443 25.603,52.616 25.264,52.375 C24.584,51.893 23.555,50.199 23.28,47.105 C22.791,41.589 26.552,36.65 31.19,32.011 L39.953,23.238 C48.839,14.351 49.706,12.785 50.139,9.149" id="Fill-7" sketch:type="MSShapeGroup"></path>
            <g id="Group-11" transform="translate(22.000000, 0.000000)" sketch:type="MSShapeGroup">
                <path d="M19.484,36.765 C21.981,34.284 28.251,28.655 28.251,23.776 L28.251,18.381 C28.251,18.325 28.139,18.345 28.139,18.381 C27.706,22.018 26.839,23.584 17.953,32.471 L9.813,40.624 C6.856,43.581 4.144,46.681 4.269,51.687 C4.346,54.754 5.888,57.296 8.208,57.895 C9.163,58.101 9.105,57.976 8.878,57.88 C5.6,56.333 5.836,50.414 11.134,45.116 L19.484,36.765" id="Fill-8"></path>
                <path d="M9.266,28.605 C2.501,35.369 1.201,38.167 0.79,42.826 C0.772,43.069 0.423,41.913 0.319,41.095 C-0.03,38.35 0.172,36.357 1.105,33.609 C2.5,29.501 5.803,26.228 10.089,21.943 L17.953,14.066 C26.839,5.179 27.706,3.613 28.139,-0.024 C28.139,-0.06 28.251,-0.08 28.251,-0.024 L28.251,5.371 C28.251,10.25 21.981,15.879 19.484,18.36 L9.266,28.605" id="Fill-10"></path>
            </g>
            <path d="M45.306,74.721 C45.301,74.762 45.19,74.763 45.19,74.721 L45.19,69.359 L47.435,69.359 C46.166,71.177 45.518,72.937 45.306,74.721" id="Fill-12" sketch:type="MSShapeGroup"></path>
            <path d="M45.322,65.876 C45.318,65.918 45.207,65.919 45.207,65.876 L45.207,60.419 C45.207,56.319 49.226,51.886 53.209,47.929 L55.793,45.346 C57.878,43.261 64.247,36.979 61.577,30.928 C61.489,30.727 61.407,30.554 61.747,30.795 C62.426,31.277 63.456,32.971 63.73,36.066 C64.219,41.581 60.458,46.52 55.82,51.159 L53.431,53.559 C47.671,59.319 45.755,61.9 45.322,65.876" id="Fill-13" sketch:type="MSShapeGroup"></path>
            <path d="M45.316,56.411 C45.311,56.452 45.201,56.453 45.201,56.411 L45.201,50.87 C45.201,46.961 49.078,42.742 50.96,40.86 L53.877,37.949 C59.174,32.651 59.41,26.733 56.132,25.186 C55.905,25.089 55.847,24.965 56.802,25.171 C59.123,25.77 60.665,28.312 60.741,31.379 C60.866,36.384 58.2,39.464 55.243,42.422 L52.878,44.786 C47.931,49.732 45.766,52.624 45.316,56.411" id="Fill-14" sketch:type="MSShapeGroup"></path>
            <path d="M86.615,70.729 L86.81,70.729 C87.115,70.729 87.269,70.582 87.269,70.285 C87.269,70.134 87.211,70.009 87.097,69.908 C86.983,69.807 86.843,69.756 86.675,69.756 C86.568,69.756 86.515,69.798 86.515,69.883 L86.519,69.941 L86.519,70.631 C86.519,70.677 86.522,70.705 86.532,70.714 C86.542,70.724 86.569,70.729 86.615,70.729 L86.615,70.729 Z M87.165,70.804 L87.629,71.482 L87.687,71.564 C87.832,71.776 87.963,71.884 88.079,71.89 L88.134,71.893 C88.171,71.895 88.188,71.912 88.187,71.945 C88.183,72.002 88.091,72.03 87.913,72.03 C87.708,72.03 87.523,71.906 87.359,71.66 L86.925,71.006 L86.901,70.967 C86.878,70.928 86.839,70.909 86.785,70.909 L86.553,70.909 L86.526,70.912 L86.519,70.947 L86.519,71.552 C86.519,71.687 86.536,71.775 86.572,71.818 C86.608,71.859 86.69,71.887 86.817,71.901 C86.874,71.907 86.903,71.927 86.905,71.964 C86.907,72.004 86.88,72.022 86.822,72.022 C86.805,72.022 86.77,72.019 86.716,72.013 C86.671,72.007 86.598,72.005 86.495,72.005 L86.233,72.005 C86.2,72.005 86.151,72.008 86.089,72.016 C86.044,72.02 86.015,72.022 86.001,72.022 C85.95,72.022 85.925,72.002 85.925,71.963 C85.925,71.934 85.946,71.915 85.989,71.905 C86.079,71.883 86.137,71.844 86.161,71.787 C86.186,71.729 86.198,71.605 86.198,71.414 L86.198,70.181 L86.194,70.004 C86.194,69.838 86.137,69.747 86.021,69.729 L85.938,69.717 C85.888,69.708 85.862,69.685 85.862,69.65 C85.862,69.612 85.89,69.592 85.943,69.592 C85.957,69.592 85.999,69.595 86.068,69.601 C86.105,69.603 86.157,69.604 86.223,69.604 C86.277,69.604 86.367,69.6 86.493,69.592 C86.589,69.588 86.671,69.585 86.741,69.585 C87.298,69.585 87.577,69.789 87.577,70.199 C87.577,70.457 87.439,70.658 87.165,70.804 L87.165,70.804 Z M86.903,68.96 C86.393,68.96 85.956,69.14 85.595,69.502 C85.233,69.864 85.054,70.3 85.054,70.811 C85.054,71.322 85.233,71.758 85.595,72.121 C85.956,72.482 86.393,72.663 86.903,72.663 C87.413,72.663 87.849,72.482 88.21,72.121 C88.571,71.758 88.753,71.322 88.753,70.811 C88.753,70.298 88.572,69.861 88.212,69.501 C87.852,69.14 87.415,68.96 86.903,68.96 L86.903,68.96 Z M86.903,68.729 C87.479,68.729 87.97,68.931 88.375,69.338 C88.78,69.743 88.983,70.234 88.983,70.81 C88.983,71.385 88.78,71.876 88.374,72.281 C87.968,72.687 87.478,72.889 86.903,72.889 C86.259,72.889 85.731,72.645 85.321,72.156 C84.989,71.761 84.823,71.313 84.823,70.81 C84.823,70.298 84.987,69.848 85.317,69.459 C85.733,68.972 86.263,68.729 86.903,68.729 L86.903,68.729 Z" id="Fill-15" sketch:type="MSShapeGroup"></path>
        </g>
    </g>
</svg>